PathFileType	4	(X/Y/Z)	c:\Git\powerlifing_model_clean\simulations\HC835B\Session1\HC835B_OGR_0007\marker_experimental.trc
DataRate	CameraRate	NumFrames	NumMarkers	Units	OrigDataRate	OrigDataStartFrame	OrigNumFrames
240.000000	240.000000	5	38	mm	240.000000	55	223
Frame#	Time	RPSI			LPSI			RASI			LASI			RTH1			RTH2			RTH3			RTH4			RSK1			RSK2			RSK3			RSK4			RCAL1			RCAL2			RCAL3			RST			RPT			RTN			RFMB			RSMB			RVMB			RFMH			RSMH			RVMH			RPM			LTH1			LTH2			LTH3			LTH4			LSK1			LSK2			LSK3			LSK4			LCAL1			LCAL2			LCAL3			LFMH			LVMH			
		X1	Y1	Z1	X2	Y2	Z2	X3	Y3	Z3	X4	Y4	Z4	X5	Y5	Z5	X6	Y6	Z6	X7	Y7	Z7	X8	Y8	Z8	X9	Y9	Z9	X10	Y10	Z10	X11	Y11	Z11	X12	Y12	Z12	X13	Y13	Z13	X14	Y14	Z14	X15	Y15	Z15	X16	Y16	Z16	X17	Y17	Z17	X18	Y18	Z18	X19	Y19	Z19	X20	Y20	Z20	X21	Y21	Z21	X22	Y22	Z22	X23	Y23	Z23	X24	Y24	Z24	X25	Y25	Z25	X26	Y26	Z26	X27	Y27	Z27	X28	Y28	Z28	X29	Y29	Z29	X30	Y30	Z30	X31	Y31	Z31	X32	Y32	Z32	X33	Y33	Z33	X34	Y34	Z34	X35	Y35	Z35	X36	Y36	Z36	X37	Y37	Z37	X38	Y38	Z38	

56	0.2291666666666667	513.4617309570314	1127.271240234375	-612.4429931640626	405.2549133300782	1119.514526367188	-612.9953613281251	580.7332153320314	1047.431518554688	-813.2587890625002	331.9333496093751	1041.717895507813	-808.4501953125002	631.7558593750001	781.0340576171877	-708.7207641601564	624.6746215820314	764.7313232421876	-766.9063110351564	614.7269287109376	699.3624877929689	-724.4655151367189	596.8345336914064	684.8790283203126	-778.2967529296877	533.1882324218751	307.0906982421876	-529.8434448242189	530.9176025390626	268.5905456542969	-578.5848999023439	522.1928100585939	249.920883178711	-520.9779663085939	508.6837463378907	215.2143554687501	-568.0188598632814	450.1373901367189	125.8755264282227	-401.4461975097657	415.4163513183595	91.23934173583986	-404.9699096679689	478.9393615722657	87.56664276123048	-395.379119873047	407.4227294921876	94.64060974121095	-474.9892883300782	508.3173828125001	87.21788787841798	-453.5812377929689	424.5476074218751	101.0501022338867	-532.8113403320314	431.1874084472657	78.65218353271486	-560.7215576171876	481.9017028808595	97.62080383300784	-569.8101196289064	519.8223876953126	53.42898178100587	-490.797088623047	431.8746948242189	45.61081695556641	-610.2568359375001	488.3858337402345	51.76170730590822	-620.0062866210939	544.4929809570314	36.25908660888673	-562.6828002929689	479.9638671875001	36.8617057800293	-677.3489990234376	251.6187438964844	787.851745605469	-799.1279907226565	253.4771270751954	800.1732177734377	-859.0088500976565	248.2944335937501	719.4696044921876	-850.276550292969	265.8530578613282	730.4458007812501	-908.0932617187502	298.4159240722657	518.1664428710939	-620.1619262695314	291.8161926269532	464.5467224121095	-621.0838623046876	303.5407409667969	483.078582763672	-575.9442749023439	312.6512756347657	427.4788818359376	-581.1890258789064	374.8412780761719	486.219451904297	-426.8047790527345	349.1836853027344	473.4505004882814	-388.3574523925782	407.3799133300782	469.1301574707032	-396.1763000488282	401.4866027832032	264.2045593261719	-475.5746459960939	302.0480651855469	289.2515563964844	-425.1708374023439	
57	0.2333333333333333	514.1851806640626	1130.296997070313	-627.0916137695314	405.8732299804689	1122.741088867188	-626.6658325195314	580.3883666992189	1049.732666015625	-827.0599365234377	332.1610412597657	1044.30615234375	-822.288513183594	631.0449829101564	783.848327636719	-717.5516357421876	623.9494018554689	766.4826660156251	-775.4216308593752	614.1433715820314	702.0202026367189	-731.8309936523439	596.0397949218751	686.4459228515626	-785.363220214844	534.2995605468751	310.7365112304688	-532.7475585937501	531.8530883789064	272.0338745117188	-581.4963989257814	523.2597045898439	253.618637084961	-523.7722778320314	509.7870178222657	218.660140991211	-570.6586914062501	451.905731201172	130.4889678955078	-403.7088012695314	416.7218017578126	96.20552825927737	-406.5755615234376	480.1643371582032	91.9055862426758	-397.0085449218751	408.771697998047	98.52223968505862	-476.5923156738282	509.1888732910157	90.01966094970705	-455.0949707031251	426.023162841797	103.6711730957032	-534.4480590820314	432.1859741210939	80.46910095214845	-561.9453125000001	482.9480895996095	98.40552520751956	-570.6583251953126	520.7420654296876	55.46126556396486	-491.7835388183595	432.0705871582032	45.79745101928712	-610.3649902343751	488.7233276367189	51.40724563598634	-620.5343627929689	544.5703125000001	36.2179298400879	-562.9317626953126	479.9551391601564	36.88790893554688	-677.3323974609376	252.0536651611329	791.7087402343752	-815.0194091796877	254.0296020507813	804.8751220703127	-874.696716308594	249.0724792480469	724.0421752929689	-867.0236816406252	266.8129882812501	735.9478759765626	-924.6704711914065	299.0266418457032	514.9464721679689	-640.2068481445314	292.7024841308594	461.327606201172	-642.8173217773439	304.1234130859376	478.4812927246095	-596.8909912109376	313.5521545410157	422.884735107422	-604.5290527343751	375.0405273437501	477.0862121582032	-447.2571105957032	349.1949768066407	462.9964599609376	-409.448455810547	407.6152648925782	458.9432373046876	-416.971893310547	401.1583251953126	256.4382629394532	-505.8105468750001	302.2125244140626	280.2474975585938	-452.873260498047	
58	0.2375	515.0051269531251	1133.321044921875	-641.7077026367189	406.4074707031251	1126.134399414063	-640.4647827148439	579.8979492187501	1052.230712890625	-840.8703613281252	332.3396301269532	1046.877319335938	-836.1251220703127	630.4278564453126	786.9117431640627	-726.6520385742189	623.1845092773439	768.5345458984377	-784.2290039062502	613.6129150390626	704.7828979492189	-739.5137329101564	595.2630004882814	688.3271484375001	-792.6455078125002	535.0704956054689	314.5265502929688	-536.0823364257814	532.8698120117189	275.7268981933594	-584.5559692382814	524.3921508789064	257.5465698242188	-526.6274414062501	511.0397338867189	222.2940673828126	-573.4658813476564	453.7017822265626	135.3890380859375	-406.3123474121095	417.8855590820314	101.4734268188477	-408.5893859863282	481.4272460937501	96.54323577880862	-398.9351501464845	410.2452697753907	102.5175247192383	-478.5901489257814	510.3596496582032	93.32445526123048	-456.8116149902345	427.4395751953126	106.2941131591797	-536.5649414062501	433.2463989257814	82.15870666503908	-563.3280639648439	484.0430297851564	99.22440338134768	-572.7943115234376	521.9634399414064	57.93360900878908	-492.8892211914064	432.3466796875001	46.01110458374024	-610.4655151367189	488.9907226562501	51.02730941772462	-621.1779785156251	544.5227661132814	36.23324203491212	-563.2160034179689	479.9438781738282	36.81707000732423	-677.3358154296876	252.3570251464844	795.7503662109377	-831.0490722656252	254.5848083496094	809.563171386719	-890.4421386718752	249.8326721191407	728.5277709960939	-883.8867187500002	267.6870117187501	741.2400512695314	-941.326599121094	299.6517639160157	511.5111694335939	-660.1328735351564	293.5412902832032	458.0061950683595	-664.5478515625001	304.7369689941407	473.6484375000001	-618.1766357421876	314.5389709472657	418.7470703125001	-627.5660400390626	375.2977905273438	467.7020263671876	-467.778533935547	349.1694335937501	452.2029113769532	-430.7776794433595	407.4421997070314	448.2618103027345	-438.1716918945314	400.8433227539064	249.2844696044922	-532.2866210937501	302.3883361816407	271.1708679199219	-481.360076904297	
59	0.2416666666666667	515.6738281250001	1136.395385742188	-656.3548583984376	406.8966064453126	1129.5380859375	-654.2424926757814	579.4019775390626	1054.7802734375	-854.7192382812502	332.4584045410157	1049.454956054688	-849.9971923828127	629.8731079101564	790.1989746093752	-736.0603637695314	622.4086914062501	770.8809204101565	-793.2703247070315	613.1060791015626	707.7923583984376	-747.4869995117189	594.4877319335939	690.5734863281251	-800.2451171875002	536.0737915039064	318.6641235351563	-539.3540649414064	533.9684448242189	279.4760437011719	-588.0191040039064	525.6018066406251	261.7146301269532	-529.6924438476564	512.4643554687501	226.1696319580079	-576.5305786132814	455.4533691406251	140.5383758544922	-409.2791748046876	419.2930297851564	107.0369720458985	-410.8648681640626	482.7126770019532	101.5433044433594	-401.1571044921876	411.7984313964845	106.5952987670899	-480.859100341797	511.6549682617189	96.73988342285159	-458.8626098632814	429.0271911621095	108.8882522583008	-538.5671386718751	434.3058166503907	83.98335266113283	-564.8541259765626	485.4981689453126	100.4177627563477	-575.1376953125001	522.6707763671876	60.10853958129884	-494.2646789550782	432.5446777343751	46.17750549316407	-610.5883789062501	489.3440246582032	50.68679428100587	-621.8713378906251	544.6350708007814	36.2946891784668	-563.5645141601564	479.9944458007814	36.85269927978516	-677.3626708984376	252.5140991210938	799.741638183594	-846.9829711914065	255.0033874511719	814.1303710937502	-906.179138183594	250.5424346923829	733.0859375000001	-900.4088134765627	268.6852111816407	746.5496215820314	-957.6646728515627	300.2706909179688	507.8265380859376	-680.0915527343751	294.4637756347657	454.519012451172	-686.2556762695314	305.3191833496094	468.6531372070314	-639.2259521484376	315.4539184570313	414.1295471191407	-650.3497924804689	375.6054687500001	457.9304199218751	-488.719451904297	349.1679992675782	441.1860961914064	-452.3877258300782	407.1997680664064	437.5109863281251	-459.5921630859376	402.2096557617189	242.1463012695313	-561.7230834960939	302.7236938476563	262.0457153320313	-509.7167358398439	
60	0.2458333333333333	516.3095092773439	1139.548461914063	-670.8668823242189	407.4045715332032	1133.195922851563	-667.7133789062501	578.8337402343751	1057.406372070313	-868.529235839844	332.5103454589844	1052.030517578125	-864.3034667968752	629.4796752929689	793.647155761719	-745.6818237304689	621.6459350585939	773.297302246094	-802.567077636719	612.7886962890626	711.0639648437501	-755.8072509765626	593.7296752929689	692.9948120117189	-808.1610107421877	537.1602172851564	323.0060424804688	-542.9802856445314	535.3037719726564	283.7760009765626	-591.2683105468751	526.8697509765626	266.0549011230469	-533.1436767578126	514.0946044921876	230.2057647705079	-579.8334350585939	457.168914794922	145.9826812744141	-412.6553649902345	420.7228393554689	113.0025711059571	-413.4520568847657	483.9771423339845	106.7981948852539	-403.7386169433595	413.5008239746095	111.0403671264649	-483.1622009277345	512.9171142578126	100.2590408325196	-461.1673889160157	430.7022399902345	111.6103134155274	-540.9317626953126	435.2549743652345	85.2777557373047	-565.4545898437501	486.5941162109376	100.9571228027344	-577.3835449218751	523.3792114257814	62.52412033081056	-495.7855224609376	432.7629699707032	46.43412780761719	-610.7615966796876	489.6772460937501	50.41968536376955	-622.5260620117189	544.2252807617189	35.9933090209961	-564.0390014648439	480.0035095214845	36.83371734619141	-677.4020385742189	252.5513916015626	803.7032470703127	-862.8593750000002	255.371322631836	818.6741333007815	-921.8988037109377	251.2462158203126	737.6818237304689	-917.0537719726565	269.6059875488282	751.6236572265626	-974.1276855468752	300.8858947753907	504.0178527832032	-700.1001586914064	295.2905883789063	450.7547302246095	-707.9116210937501	305.9205627441407	463.5298461914064	-660.4962768554689	316.5559997558594	409.5242309570314	-673.3970336914064	375.6420898437501	447.9192504882814	-509.8266906738282	349.0581970214844	429.7694396972657	-474.2653808593751	407.5708312988282	426.4967041015626	-481.3098144531251	402.8146972656251	234.4903564453126	-590.1298828125001	303.0755310058594	252.8814849853516	-538.4802856445314	
